<svg width="135" height="13" fill="none" xmlns="http://www.w3.org/2000/svg"><path d="M116.667.253c-.378.9-.719 1.61-1.135 2.547h-12.064c-1.134 2.473-2.268 5.02-3.403 7.53h6.126c2.232 0 2.232 0 2.988-2.434h-5.181c.416-1.05.756-1.799 1.059-2.585h9.341c-1.021 2.135-1.816 4.046-2.837 5.881-.68 1.237-1.966 1.761-3.365 1.761-2.95.038-5.9.038-8.888 0-.491 0-1.02-.15-1.474-.337-1.324-.524-1.891-1.573-1.324-2.847 1.097-2.585 2.307-5.133 3.555-7.643.567-1.124 1.55-1.798 2.836-1.948.492-.075.983-.15 1.513-.15h10.589c.491 0 .983.113 1.664.225zM27.228 12.99c-1.4 0-2.76.038-4.16-.037-.794-.037-1.626-.187-2.382-.487-1.248-.524-1.664-1.686-1.135-2.922 1.059-2.398 2.118-4.795 3.29-7.118.567-1.162 1.588-1.948 2.912-2.173.756-.113 1.513-.225 2.231-.225 2.27-.037 4.538-.037 6.807 0 .643 0 1.248.038 1.891.15 2.534.412 3.253 1.648 2.194 3.934-.908 1.985-1.891 3.933-2.723 5.956-.87 2.061-2.458 2.923-4.576 2.923h-4.349zm-4.16-2.66c.416 0 .832-.037.983-.037 2.307.038 4.69.038 6.997.038.718 0 1.172-.525 1.437-1.124.605-1.349 1.248-2.698 1.89-4.084.303-.637.53-1.311.908-2.21h-8.547c-1.096 2.323-2.571 5.057-3.668 7.418zm54.23-7.53H65.991c-.303.562-.567.9-.719 1.312-.113.224-.113.45-.189.936.719.038 1.324.113 1.891.113 1.626 0 3.29-.038 4.916.037.606.038 1.248.15 1.816.412 1.096.487 1.512 1.499 1.059 2.66a16.065 16.065 0 01-1.475 3.035c-.643 1.124-1.816 1.61-3.026 1.648-4.046.038-8.13 0-12.252 0-.19-1.086.453-1.723.87-2.622h9.605c1.853-.038 1.929-.075 2.61-2.173-.379-.113-.795-.3-1.173-.3-1.777-.037-3.517 0-5.294-.037-.605 0-1.286-.038-1.853-.263-1.324-.45-1.854-1.536-1.362-2.81.378-.974.756-2.023 1.4-2.847.567-.674 1.436-1.161 2.23-1.573.492-.225 1.097-.262 1.665-.262 3.517-.038 7.071 0 10.588 0 .303 0 .605.112 1.173.187-.416.862-.757 1.61-1.173 2.547zM51.28 8.57c.982 1.61 1.7 2.81 2.57 4.233h-3.894c-.87-1.273-1.778-2.66-2.761-4.12h-2.95a385.69 385.69 0 01-2.042 4.195H38.61c.87-2.435 2.005-4.608 3.14-6.968h11.987c.454-.974.832-1.836 1.4-3.035-4.047-.262-7.79.038-11.837-.187.416-.974.718-1.686.983-2.285.227-.15.34-.262.454-.262C48.443.103 52.149.103 55.893.103c.302 0 .643.075.945.15 1.627.45 2.231 1.61 1.664 3.147-.378.974-.87 1.91-1.323 2.885-.681 1.46-1.853 2.135-3.442 2.248-.718.074-1.399.037-2.458.037zM97.153.253c-1.967 4.27-3.858 8.392-5.787 12.588H87.85c.491-1.162.907-2.248 1.437-3.447h-7.79c-.53 1.087-1.135 2.248-1.74 3.484h-3.48c.984-2.135 1.853-4.12 2.799-6.219h11.496c.568-1.274 1.097-2.397 1.702-3.784-3.82-.262-7.412.038-11.27-.187.568-1.274 1.286-2.023 2.42-2.36a6.33 6.33 0 011.854-.262c3.517-.038 7.034-.038 10.589 0 .34-.038.718.075 1.285.187zm23.673 7.605c-.34.75-.718 1.574-1.097 2.473h10.4c-.34.899-.681 1.948-.945 2.622h-14.56c1.097-2.435 2.496-5.207 3.631-7.68h10.74c-.152.45-.303.787-.454 1.124-.189.45-.454.862-.756 1.424-2.345.037-4.652.037-6.959.037zM13.047 7.82H6.051a304.032 304.032 0 01-2.42 5.02H0c.605-1.348 1.172-2.622 1.74-3.895a158.524 158.524 0 011.74-3.71h10.664a41.522 41.522 0 01-1.097 2.586zm106.418-5.132A86.054 86.054 0 00120.562.14h14.408c-.151.45-.227.712-.34.974-.227.487-.492.974-.757 1.536-4.727.038-9.416.038-14.408.038zM4.651 2.763C5.181 1.639 5.597.665 5.9.028h14.182c-.34.75-.605 1.836-1.021 2.735-4.652.038-9.303.038-14.409 0z" fill="#fff"/></svg>