<svg width="274" height="49" fill="none" xmlns="http://www.w3.org/2000/svg"><g clip-path="url(#clip0_79_354)"><path d="M7.772 17.549c.903-.836 1.747-1.671 3.072-.836-.06.18 0 .478-.12.537-3.193 2.507-4.7 5.79-5.121 9.788-.18 2.09-.783 4.178-1.205 6.267.18.12.361.18.542.299.482-.418.904-.896 1.627-1.552.12 1.014.18 1.85.301 2.924.603.299 1.386.657 2.109 1.075 3.072-1.492 1.446-4 1.747-6.028-.542-.299-.964-.538-1.567-.836 3.796-3.223 7.531-6.326 11.327-9.55-1.627-2.387-4.218-3.103-6.447-4.416 4.7-4.655 15.303-4.178 23.195 1.134-2.831-.597-5-1.134-7.29-1.432-2.35-.299-4.76-.358-7.109-.478-.12.418-.24.657-.12.776.903 1.134 2.169 2.208 1.506 3.94-.844 2.386-1.084 5.192-3.675 6.564-1.928 1.015-3.976 1.85-6.025 2.686-2.41 1.015-2.771 1.552-2.47 4.059.06.298.06.596.181.895.422 1.372.361 2.626-1.084 3.342-1.507.716-3.013 1.85-4.7.478a35.14 35.14 0 01-2.289-1.91c-1.024-.896-1.145-1.91-.843-3.223.783-3.7 1.626-7.4 2.289-11.101.542-3.283 1.325-6.386 3.856-9.37-2.17-.478-4.097-.597-5.724-1.314C1.988 9.492 1.025 7.82 0 5.791c4.277.776 8.495-.06 11.989 2.746-2.53-.299-5.06-.657-7.651-.955-.06.119-.12.179-.12.298 2.168 1.134 4.337 2.328 6.205 3.342a169.94 169.94 0 01-2.651 6.327z" fill="#ED1C24"/><path d="M53.8 48.703H36.449c-.542 0-1.205-.179-1.687-.537a893.79 893.79 0 01-9.218-6.684c-1.506-1.075-1.867-2.507-1.265-4.238.422-1.193.723-2.447 1.084-3.82 3.675-.417 7.29-.835 10.845-1.253.422-6.565-4.217-9.55-8.073-13.25 2.47.717 4.94 1.373 7.35 2.268.723.24 1.446 1.134 1.687 1.85 2.59 8.714 2.35 6.984 9.94 9.072.181.06.302.24 1.025.657-7.17.895-13.917 1.73-20.725 2.626-.18 1.134-.362 2.089-.542 3.104 3.494 2.327 6.868 4.655 10.302 6.923 1.446.955 2.952.955 7.35.477-.422-1.014-.844-1.97-1.265-3.044 3.193-.835 5.843-.417 7.771 2.507.663 1.075 1.627 1.97 2.772 3.343z" fill="#ED1C24"/><path d="M67.958 9.79c-3.314 0-6.567-.06-9.88 0-5.001.12-10.002.299-15.002.358a16.56 16.56 0 01-4.157-.537 36.277 36.277 0 01-6.627-2.268c3.012-.537 6.025-1.194 9.097-1.671 3.193-.418 6.326-.955 9.52-1.313 1.746-.18 3.614-.239 5.3.179a38.342 38.342 0 0111.75 5.252z" fill="url(#paint0_linear_79_354)"/><path d="M244.841 28.708c-.602 1.432-1.145 2.566-1.807 4.058h-19.219c-1.807 3.94-3.614 7.998-5.422 11.996h9.76c3.554 0 3.554 0 4.759-3.879h-8.253c.662-1.671 1.204-2.865 1.686-4.118h14.881c-1.626 3.402-2.892 6.446-4.518 9.37-1.085 1.97-3.133 2.805-5.362 2.805-4.699.06-9.399.06-14.158 0-.783 0-1.627-.238-2.35-.537-2.108-.835-3.012-2.507-2.108-4.536 1.747-4.118 3.675-8.176 5.663-12.175.904-1.79 2.47-2.865 4.518-3.104.784-.12 1.567-.239 2.41-.239h16.869c.783 0 1.567.18 2.651.359zM102.359 49c-2.229 0-4.398.06-6.627-.06-1.265-.06-2.59-.298-3.796-.776-1.988-.835-2.65-2.685-1.807-4.655 1.687-3.82 3.374-7.64 5.241-11.34.904-1.85 2.53-3.103 4.639-3.461 1.205-.18 2.41-.358 3.555-.358 3.615-.06 7.229-.06 10.844 0 1.024 0 1.988.06 3.012.238 4.037.657 5.182 2.626 3.495 6.267-1.446 3.163-3.013 6.267-4.338 9.49-1.386 3.282-3.916 4.655-7.29 4.655h-6.928zm-6.627-4.238c.663 0 1.325-.06 1.566-.06 3.675.06 7.471.06 11.146.06 1.145 0 1.867-.835 2.289-1.79.964-2.149 1.988-4.297 3.012-6.505.482-1.015.844-2.09 1.446-3.522h-13.615c-1.747 3.7-4.097 8.057-5.844 11.817zm86.392-11.996h-18.013c-.482.895-.904 1.433-1.145 2.089-.181.358-.181.716-.301 1.492 1.145.06 2.109.18 3.012.18 2.591 0 5.242-.06 7.832.059.964.06 1.988.239 2.892.656 1.747.776 2.41 2.388 1.687 4.238a25.627 25.627 0 01-2.35 4.834c-1.024 1.79-2.891 2.567-4.819 2.626-6.447.06-12.953 0-19.52 0-.301-1.73.723-2.745 1.386-4.178h15.302c2.952-.06 3.073-.119 4.157-3.461-.602-.18-1.265-.478-1.868-.478-2.831-.06-5.602 0-8.434-.06-.964 0-2.048-.059-2.952-.417-2.109-.716-2.952-2.447-2.169-4.476.602-1.552 1.205-3.223 2.229-4.536.904-1.075 2.289-1.85 3.555-2.507.783-.358 1.747-.418 2.65-.418 5.603-.06 11.267 0 16.869 0 .482 0 .964.18 1.868.299a133.245 133.245 0 00-1.868 4.058zm-41.449 9.191c1.566 2.567 2.711 4.477 4.096 6.745h-6.205c-1.386-2.03-2.832-4.238-4.398-6.566h-4.699a623.525 623.525 0 01-3.253 6.685h-5.724c1.386-3.88 3.193-7.341 5.001-11.101h19.098c.723-1.552 1.325-2.925 2.229-4.835-6.447-.417-12.411.06-18.857-.298.662-1.552 1.144-2.686 1.566-3.64.362-.24.542-.418.723-.418 5.904-.06 11.808-.06 17.773-.06.482 0 1.024.12 1.506.239 2.59.716 3.554 2.566 2.651 5.013-.603 1.552-1.386 3.044-2.109 4.596-1.084 2.327-2.952 3.402-5.482 3.58-1.145.12-2.229.06-3.916.06zm73.079-13.249c-3.133 6.803-6.145 13.369-9.218 20.053h-5.603c.784-1.85 1.446-3.58 2.29-5.49h-12.411c-.843 1.73-1.807 3.58-2.771 5.55h-5.543c1.566-3.402 2.952-6.565 4.458-9.908h18.315c.904-2.029 1.747-3.82 2.711-6.028-6.085-.417-11.808.06-17.953-.298.904-2.03 2.048-3.223 3.856-3.76.964-.299 1.988-.418 2.952-.418a790.47 790.47 0 0116.869 0c.542-.06 1.144.12 2.048.299zm37.713 12.115c-.542 1.194-1.144 2.507-1.747 3.94h16.568c-.542 1.432-1.085 3.103-1.506 4.177h-23.195c1.747-3.88 3.976-8.296 5.784-12.235h17.109c-.24.716-.481 1.254-.722 1.79-.302.717-.723 1.373-1.205 2.269-3.736.06-7.411.06-11.086.06zm-171.701-.059H68.621a483.751 483.751 0 01-3.856 7.997h-5.784c.964-2.148 1.868-4.178 2.772-6.207.904-1.97 1.807-3.939 2.771-5.909h16.99a65.313 65.313 0 01-1.748 4.119zm169.533-8.177a134.368 134.368 0 001.747-4.058H274c-.241.716-.362 1.134-.542 1.551-.362.776-.784 1.552-1.205 2.447-7.531.06-15.002.06-22.954.06zm-182.907.119c.843-1.79 1.506-3.342 1.988-4.357h22.592c-.542 1.194-.964 2.925-1.627 4.357-7.41.06-14.82.06-22.953 0z" fill="#181818"/><path d="M34.22 37.9a261.102 261.102 0 005.181 3.582c-3.132-.955-6.265-1.91-8.976-4.775 1.687-.239 2.892-.716 4.097-.597 4.578.358 9.217.537 13.675 1.433 2.953.596 4.82-.12 6.326-2.447.301-.478.723-.896 1.446-1.79.844 2.207 1.506 4.058 2.29 6.146-1.748.776-3.194 1.731-4.82 2.149-1.024.299-2.29 0-3.434-.298-4.64-1.075-9.338-2.268-13.977-3.402-.301-.06-.723 0-1.808 0zm47.715-13.19c-1.085-.417-2.23-.835-3.254-1.372-5.964-2.984-12.049-5.79-18.736-7.102-4.157-.776-8.133-.716-12.05.895-1.506.657-3.132 1.134-4.88 1.253 1.206-1.432 2.47-2.864 3.676-4.237 1.024-1.134 2.289-1.373 3.795-1.433 6.627 0 12.953 1.313 18.917 4.119 3.856 1.85 7.471 4.237 11.146 6.445.482.359.843 1.015 1.386 1.433z" fill="#ED1C24"/><path d="M31.388 2.509c-3.434 2.447-6.205 4.416-10.242 3.64-2.168-.418-4.518-.06-7.048-.06 2.048-1.73 3.976-3.401 6.145-5.252 3.374.478 6.988 1.015 11.145 1.672z" fill="url(#paint1_linear_79_354)"/><path d="M46.33 1.852c-6.387 2.745-12.351 4.715-18.798 4.834C33.075 3.046 38.858.42 46.33 1.852z" fill="url(#paint2_linear_79_354)"/></g><defs><linearGradient id="paint0_linear_79_354" x1="59.71" y1="4.263" x2="42.006" y2="9.578" gradientUnits="userSpaceOnUse"><stop stop-color="#F16521"/><stop offset="1" stop-color="#ED1C24"/></linearGradient><linearGradient id="paint1_linear_79_354" x1="30.698" y1=".778" x2="18.122" y2="5.351" gradientUnits="userSpaceOnUse"><stop stop-color="#F16929"/><stop offset="1" stop-color="#ED1C24"/></linearGradient><linearGradient id="paint2_linear_79_354" x1="43.445" y1="1.504" x2="34.011" y2="4.677" gradientUnits="userSpaceOnUse"><stop stop-color="#F16521"/><stop offset="1" stop-color="#ED1C24"/></linearGradient><clipPath id="clip0_79_354"><path fill="#fff" d="M0 0h274v49H0z"/></clipPath></defs></svg>