<svg width="338" height="200" fill="none" xmlns="http://www.w3.org/2000/svg"><g clip-path="url(#clip0_79_142)"><path d="M68.116 56.584H7.651v53.123h60.465V56.584z" fill="#F18FA5"/><path d="M46.913 89.265c-1.252.168-3.7.42-4.878.539-1.073.112-2.235.163-3.447.236-1.078.061-2.2.01-3.34.022-1.134 0-2.302 0-3.458-.135-2.358-.286-2.847-.617-3.48-.69-1.309-.163-2.302-.4-3.408-.64-.904-.197-1.836-.4-2.392-.422-.062-.062-.258-.455-.297-.54-.601-1.414-.59-1.24-1.196-3.285-.303-1.005-.696-3.094-.904-4.442-.168-1.084-.387-1.398-.466-1.657-.309-1.039-.202-1.662-.258-2.797-.056-1.128-.112-3.886-.056-5.026.084-1.803.196-2.033.455-3.134.258-1.106.814-2.246 1.29-3.263.416-.887.63-1.696 1.236-2.482.696-.899.864-1.303 1.212-1.635.028-.028.292-.09.332-.095.853-.28 1.627-.37 2.076-.506.107-.01.55.04.657.04.191 0 1.42.045 3.25.09.96.022 2.078.112 3.296.135 1.094.028 2.268.039 3.48.061 1.106.017 2.246-.033 3.38-.022 1.044.011 2.088.095 3.099.1 1.094 0 2.15-.033 3.138-.044 1.111-.011 2.133-.056 3.025-.084 1.353-.045 2.409-.045 2.964-.157 1.073-.214 1.875-.326 2.588-.326.191.05.27.118.432.19.601.276 1.432.894 1.432.894 0 .387-.14 2.96.045 4.75.107 1.023.286 2.18.443 3.37.152 1.124.22 2.017.382 3.106.163 1.096.55 2.651.685 3.527.247 1.59.314.73.533 2.061.292 1.725.13 1.54.32 3.527.113 1.124-.078 3.516-.258 4.656-.185 1.168-.674 2.073-1.05 2.236-.786.337-3.334.696-2.829.612-1.297.208-1.19.056-1.97.208-2.027.41-2.46.32-3.84.449-1.286.123-.303.23-1.802.432-.112.017-.27.124-.421.146" fill="#2D2E87"/><path d="M25.694 61.779c.449-.989.842-.916 1.785-.983.55-.04 1.224.112 2.127.247.595.09.601-.09 1.387.13.584.162.696.117 1.6.258.713.106 2.868.584 3.71.674.753.073 1.55.471 2.364.533.774.056 1.56.124 2.346.163.786.04 1.572.062 2.33.079.814.011 1.605-.146 2.346-.158.82-.01 1.572-.157 2.24-.207.915-.068 1.668-.203 2.156-.354a4.82 4.82 0 012.346-.118c.854.151 1.415.5 1.746 1.23.259.584.107 1.157.259 2.213.078.5-.163 1.342-.169 2.37-.011.702.028 1.494.04 2.325.005.764.117 1.561.134 2.37.017.786.011 1.584.028 2.364.023.826.062 1.623.09 2.37.023.843.045 1.612.068 2.27.05 1.353.252 1.01.123 2.257-.118 1.134.253 1.348-.83 2.196-.439.348-1.112.77-2.072.865-.292.028-1.033.264-2.145.533-.612.157-1.336.315-2.15.5-.651.152-1.403.253-2.167.399-.684.135-1.398.208-2.155.331-.685.113-1.432.14-2.162.23-.69.09-1.414.017-2.138.085-.668.056-1.348.118-2.032.151-.562.023.01.186-.292.281-.69.23-.876.146-2.195.124-.663-.011-1.314 0-2.122-.05a44.605 44.605 0 01-2.212-.186c-.73-.079-1.437-.303-2.128-.438-.774-.152-1.555-.146-2.161-.388-.775-.303-1.398-.623-1.673-1.117-.219-.394-.28-1.32-.365-2.32-.05-.646-.011-1.393-.017-2.213-.005-.68-.129-1.41-.106-2.179.017-.713.011-1.46.05-2.218.04-.713.068-1.45.118-2.174.056-.73.258-1.449.32-2.173.062-.73.197-1.443.27-2.145.073-.72.056-1.433.134-2.1.09-.742.27-1.433.365-2.079.112-.797.028-1.544.14-2.14.191-1.061.54-1.684.68-1.825" fill="#fff"/><path d="M62.727 103.12c-.466.151-2.184.578-3.649.544-.775-.022-1.897.096-3.29.158-.988.039-2.015-.135-3.239-.062-.993.056-2.06.039-3.177.118-1.111.067-2.262.208-3.458.303-1.078.079-1.695-.05-2.818.051-1.134.095-2.015-.27-3.172-.163-1.044.101-2.857.118-3.901.23-1.073.112-2.302.539-3.346.663-1.09.123-1.976.045-3.015.18-1.089.146-2.324.499-3.345.651-1.073.168-2.1.343-3.066.517-1.044.191-2.026.297-2.907.5-.814.185-1.522.466-2.167.662-1.533.472-2.729.742-3.66.871-1.993.275-2.886-.129-3.43-.933-.489-.713-.657-1.864-.792-2.864-.163-1.207-.112-.651-.32-1.769-.309-1.645-.572-2.684.41-3.718.51-.539 1.42-1.168 2.476-1.645 1.515-.815.915-.702 3.065-1.567a50.876 50.876 0 013.132-1.118c.96-.309 2.077-.517 3.284-.848 1-.27 2.083-.54 3.256-.803 1.039-.236 2.128-.562 3.312-.786a90.86 90.86 0 013.318-.584c1.117-.186 2.301-.315 3.53-.478 1.095-.146 2.235-.247 3.42-.37 1.05-.113 2.127-.315 3.25-.41 1.095-.09 2.605.01 3.761-.062 1.027-.068 1.695-.27 2.779-.326 1.055-.05 2.139-.073 3.244-.107 1.084-.033 2.19-.067 3.33-.078.942-.017 1.902-.068 2.885-.079 1.594 0 3.15.09 3.958.607 1.207.77 1.072 1.23 1.117 2.752.056 1.713-.107.881.168 2.577.298 1.826.343 3.426.46 5.01.068.826-.482 1.539-1.409 2.376" fill="#2D2E87"/><path d="M18.817 100.362c.572 0 1.027-.438 1.027-1.067s-.455-1.168-1.027-1.168c-.573 0-.955.54-.955 1.168 0 .63.382 1.067.955 1.067zm6.174 3.072c.567.084 1.056-.494 1.056-1.067s-.483-.949-1.056-.949c-.572 0-1.004.376-1.01.949-.023 1.393.735 1.022 1.01 1.067zm-3.485.742c.572 0 1.066-.534 1.066-1.101s-.494-1.017-1.066-1.017c-.573 0-.96.45-.96 1.017s.387 1.101.96 1.101zm13.562-4.403c.573 0 1.072-.528 1.072-1.101s-.5-.944-1.072-.944c-.572 0-1.263.23-1.021.972.18.539.449 1.067 1.021 1.067m-5.872 1.247a.96.96 0 00.955-.966c0-.567-.46-.933-.955-.933-.494 0-.87.36-.87.933 0 .573.382.966.87.966zm-2.761-.77c.556.124.993-.477.993-1.044 0-.568-.42-1.05-.993-1.05s-1.022.471-1.022 1.05c0 .578-.017.82 1.022 1.044zm6.135-3.712c.573 0 1.017-.146 1.017-.719s-.545-.994-1.112-.994c-.567 0-1.083.427-1.083.994s.612.719 1.179.719zm2.919-1.516c.573 0 1.083-.444 1.083-1.017s-.51-.977-1.083-.977-1.078.41-1.078.977.5 1.017 1.078 1.017z" fill="#fff"/><path d="M17.946 104.237c.41 0 .741-.32.741-.769s-.33-.843-.74-.843-.691.388-.691.843c0 .455.275.769.69.769zm8.899-8.171c.415 0 .774-.382.774-.792 0-.41-.359-.736-.774-.736-.416 0-.69.326-.69.736s.28.792.69.792zm-3.503 3.549c.415 0 .735-.106.735-.516 0-.41-.393-.72-.803-.72-.41 0-.78.304-.78.72 0 .415.438.516.848.516zm9.094 1.814c.415 0 .78-.32.78-.73s-.37-.707-.78-.707c-.41 0-.775.292-.775.707 0 .416.36.73.775.73zm14.769.371c.798 0 1.46-.691 1.46-1.483 0-.791-.696-1.471-1.488-1.471-.791 0-1.325.69-1.325 1.477 0 .786.562 1.477 1.359 1.477m-1.724-4.96c.792 0 1.521-.701 1.521-1.499 0-.797-.724-1.41-1.52-1.41-.798 0-1.387.624-1.387 1.41 0 .787.589 1.5 1.386 1.5zm8.499.388c.792 0 1.415-.584 1.415-1.375 0-.792-.623-1.337-1.415-1.337-.791 0-1.313.539-1.313 1.337 0 .797.522 1.376 1.313 1.376zm-3.02 2.797c.792 0 1.438-.747 1.438-1.538 0-.792-.64-1.298-1.438-1.298-.797 0-1.572.506-1.572 1.298 0 .791.775 1.538 1.572 1.538z" fill="#FE0"/><path d="M41.861 76.864v.753m-4.923-1.343v.674m-8.802 2.028l-.466.831m24.346-5.6l-.028.944m-3.177-7.042l-1.364 4.425M31.863 68.99v1.225l9.673 5.436-4.132-.314m9.706-1.977l-5.557 2.819-1.275-3.667m-8.246-2.264l8.106 1.225 8.578-2.825 3.379 4.11-4.654.877M31.465 70.81l-3.015 7.06 8.673-2.915 11.75-6.684v-1.224m-21.08 15.147l1.022-2.01L26.8 79.16l-1.027 2.01 2.02 1.023zm10.29-5.285h-2.262v2.258h2.262v-2.258zm4.996.595h-2.262v2.258h2.262v-2.258zm10.15-2.336h-2.262v2.258h2.262v-2.258zm-3.205-10.35H47.76v2.263h2.263v-2.264zm-16.999 1.819h-2.262V68.9h2.262v-2.263z" stroke="#2D2E87" stroke-width=".8"/><path d="M48.788 70.03c.584 0 1.056-.473 1.056-1.051 0-.579-.472-1.05-1.056-1.05-.583 0-1.06.471-1.06 1.05 0 .578.471 1.05 1.06 1.05zm-11.783 6.362c.612 0 1.112-.5 1.112-1.106 0-.606-.5-1.112-1.112-1.112-.612 0-1.106.494-1.106 1.112a1.1 1.1 0 001.106 1.106zm3.256-3.566c.584 0 1.056-.472 1.056-1.056a1.054 1.054 0 10-2.11 0c0 .584.47 1.056 1.054 1.056z" fill="#E7344C"/><path d="M28.573 79.223a1.053 1.053 0 100-2.106 1.054 1.054 0 100 2.106zm18.846-4.763c.584 0 1.06-.471 1.06-1.05a1.06 1.06 0 00-2.116 0c0 .584.472 1.05 1.056 1.05z" fill="#F087AA"/><path d="M31.835 71.602a1.053 1.053 0 100-2.106c-.584 0-1.056.471-1.056 1.055s.472 1.05 1.056 1.05zm20.052 2.763a1.053 1.053 0 100-2.106c-.583 0-1.055.472-1.055 1.056 0 .584.472 1.05 1.055 1.05zM41.9 76.999c.584 0 1.056-.472 1.056-1.056a1.05 1.05 0 00-1.056-1.05 1.053 1.053 0 100 2.106z" fill="#FE0"/><path d="M107.322 67.047c-.954-4.807-4.805-7.234-9.515-7.234-8.09 0-11.514 6.667-11.514 13.76 0 7.762 3.424 14.232 11.559 14.232 5.95 0 9.375-4.19 9.801-9.806h4.519c-.853 8.474-6.136 13.613-14.702 13.613-10.565 0-15.701-7.806-15.701-17.708 0-9.9 5.619-17.904 16.083-17.904 7.09 0 12.945 3.813 13.989 11.047h-4.519zm8.612-10.238h4.047v12.996h.095c1.331-2.954 4.806-4.19 7.759-4.19 6.472 0 8.465 3.712 8.465 8.997v16.186h-4.042V74.135c0-3-1.903-4.948-4.996-4.948-4.901 0-7.275 3.285-7.275 7.71v13.901h-4.048v-33.99h-.005zm45.493 26.183c-1.095 5.425-4.996 8.379-10.515 8.379-7.848 0-11.564-5.425-11.8-12.951 0-7.38 4.851-12.805 11.564-12.805 8.707 0 11.368 8.138 11.138 14.091h-18.413c-.14 4.285 2.285 8.093 7.657 8.093 3.335 0 5.664-1.618 6.377-4.808h3.997-.005zm-3.902-6.858c-.191-3.858-3.087-6.947-7.09-6.947-4.233 0-6.759 3.19-7.039 6.947h14.129zm24.74-2.044c-.618-3.095-2.757-4.903-6.085-4.903-5.856 0-7.663 4.616-7.663 9.615 0 4.52 2.043 8.997 7.185 8.997 3.902 0 6.237-2.286 6.759-5.998h4.138c-.899 5.998-4.66 9.57-10.846 9.57-7.517 0-11.514-5.234-11.514-12.57 0-7.334 3.812-13.186 11.609-13.186 5.569 0 10.043 2.617 10.616 8.47h-4.188l-.011.005zm7.657-17.281h4.047v20.14l11.228-10.761h5.423l-9.751 8.952 10.463 15.658h-5.136l-8.421-12.85-3.806 3.522v9.328h-4.047v-33.99zm35.973.006h14.893c6.759 0 10.424 3.762 10.424 10.041 0 6.28-3.665 10.093-10.424 10.042h-10.374v13.9h-4.519V56.815zm4.519 16.28h8.852c5.092.051 7.422-2.19 7.422-6.233 0-4.044-2.33-6.234-7.422-6.234h-8.852V73.1v-.005zm34.17-7.475c7.803 0 11.94 5.662 11.94 12.901 0 7.24-4.137 12.85-11.94 12.85s-11.946-5.667-11.946-12.85 4.137-12.9 11.946-12.9zm0 22.184c4.232 0 7.657-3.33 7.657-9.283 0-5.953-3.425-9.329-7.657-9.329-4.233 0-7.663 3.33-7.663 9.329 0 5.998 3.43 9.284 7.663 9.284zm19.929-26.042h-4.042V56.81h4.042v4.953zm-4.042 4.426h4.042v24.61h-4.042v-24.61zm9.133 0h3.806v3.903h.095c1.712-3.044 4.468-4.476 7.994-4.476 6.467 0 8.471 3.712 8.471 8.997v16.186h-4.042V74.135c0-3-1.903-4.954-5.002-4.954-4.9 0-7.281 3.286-7.281 7.711v13.9h-4.041V66.188zm30.886 0h4.901v3.572h-4.901v15.28c0 1.854.522 2.19 3.043 2.19h1.852v3.573h-3.093c-4.182 0-5.849-.86-5.849-5.38V69.76h-4.188v-3.572h4.188v-7.374h4.042v7.374h.005zM29.837 143.455h-3.183l-5.232-19.274h-.068l-5.3 19.274h-3.176L7 120.519h3.116l4.496 19.084h.062l5.136-19.084h3.313l5.074 19.084h.068l4.653-19.084h3.049l-6.13 22.936zm20.394-5.268c-.74 3.662-3.373 5.656-7.095 5.656-5.305 0-7.809-3.662-7.966-8.739 0-4.982 3.273-8.643 7.797-8.643 5.878 0 7.68 5.492 7.517 9.508H38.061c-.096 2.892 1.538 5.464 5.17 5.464 2.251 0 3.823-1.095 4.306-3.246h2.694zm-2.638-4.622c-.13-2.606-2.088-4.695-4.783-4.695-2.857 0-4.558 2.157-4.749 4.695h9.532zm27.333-6.335c-.354-3.274-2.538-4.69-5.681-4.69-2.572 0-5.137.933-5.137 3.921 0 2.83 3.66 3.246 7.354 4.083 3.66.831 7.326 2.117 7.326 6.615 0 4.886-4.783 6.841-8.96 6.841-5.142 0-9.476-2.505-9.476-8.099h2.892c0 3.859 3.21 5.527 6.68 5.527 2.756 0 5.81-.871 5.81-4.179 0-3.308-3.66-3.695-7.32-4.498-3.66-.803-7.36-1.865-7.36-6.071 0-4.656 4.143-6.712 8.32-6.712 4.687 0 8.252 2.213 8.443 7.256H74.93l-.005.006zm21.23 10.957c-.74 3.662-3.374 5.656-7.096 5.656-5.299 0-7.808-3.662-7.965-8.739 0-4.982 3.278-8.643 7.803-8.643 5.877 0 7.674 5.492 7.517 9.508h-12.43c-.095 2.892 1.544 5.464 5.171 5.464 2.245 0 3.823-1.095 4.306-3.246h2.694zm-2.638-4.622c-.13-2.606-2.088-4.695-4.783-4.695-2.857 0-4.558 2.157-4.755 4.695h9.538zm17.442-1.387c-.421-2.089-1.864-3.314-4.11-3.314-3.952 0-5.17 3.117-5.17 6.493 0 3.049 1.381 6.071 4.85 6.071 2.633 0 4.211-1.539 4.564-4.049h2.796c-.612 4.049-3.149 6.458-7.326 6.458-5.075 0-7.775-3.532-7.775-8.48s2.571-8.902 7.837-8.902c3.755 0 6.775 1.764 7.163 5.717h-2.829v.006zm19.619 11.277h-2.571v-2.634h-.062c-1.156 2.056-3.014 3.022-5.394 3.022-4.368 0-5.715-2.505-5.715-6.071v-10.924h2.734v11.244c0 2.027 1.285 3.341 3.374 3.341 3.306 0 4.912-2.218 4.912-5.206v-9.379h2.728v16.613l-.006-.006zm3.313-16.607h2.565v3.505h.067c1.314-2.668 3.15-3.988 6.102-3.892v2.892c-4.395 0-6.006 2.505-6.006 6.717v7.391h-2.728v-16.613zm24.177 11.339c-.741 3.662-3.374 5.656-7.095 5.656-5.305 0-7.809-3.662-7.966-8.739 0-4.982 3.278-8.643 7.803-8.643 5.877 0 7.674 5.492 7.517 9.508h-12.429c-.096 2.892 1.544 5.464 5.17 5.464 2.246 0 3.823-1.095 4.3-3.246h2.7zm-2.638-4.622c-.129-2.606-2.083-4.695-4.783-4.695-2.857 0-4.558 2.157-4.749 4.695h9.538-.006zm17.409-6.717h3.312v2.41h-3.312v10.317c0 1.252.353 1.477 2.054 1.477h1.252v2.409h-2.088c-2.829 0-3.952-.579-3.952-3.634v-10.569h-2.824v-2.41h2.824v-4.981h2.728v4.981h.006zm6.332-6.329h2.728v8.772h.067c.899-1.993 3.245-2.825 5.238-2.825 4.367 0 5.715 2.505 5.715 6.071v10.924h-2.728v-11.244c0-2.022-1.286-3.341-3.374-3.341-3.312 0-4.918 2.218-4.918 5.206v9.379h-2.728v-22.942zm31.02 17.668c-.735 3.662-3.368 5.656-7.095 5.656-5.3 0-7.803-3.662-7.966-8.739 0-4.982 3.278-8.643 7.808-8.643 5.878 0 7.669 5.492 7.512 9.508h-12.429c-.096 2.892 1.544 5.464 5.17 5.464 2.251 0 3.817-1.095 4.3-3.246h2.7zm-2.632-4.622c-.13-2.606-2.083-4.695-4.783-4.695-2.858 0-4.559 2.157-4.755 4.695h9.538zm17.251-13.046h-3.054v22.936h3.054v-22.936zm4.166 6.329h2.571v2.634h.061c1.157-2.055 3.021-3.021 5.401-3.021 4.367 0 5.714 2.505 5.714 6.071v10.923h-2.728v-11.243c0-2.022-1.285-3.342-3.374-3.342-3.306 0-4.917 2.218-4.917 5.206v9.379h-2.728v-16.607zm21.264 0h3.307v2.41h-3.307v10.317c0 1.252.348 1.477 2.055 1.477h1.252v2.409h-2.089c-2.829 0-3.952-.579-3.952-3.634v-10.569h-2.823v-2.41h2.823v-4.981h2.734v4.981zm19.973 11.339c-.736 3.662-3.374 5.656-7.096 5.656-5.299 0-7.808-3.662-7.966-8.739 0-4.982 3.279-8.643 7.803-8.643 5.878 0 7.674 5.492 7.517 9.508h-12.429c-.095 2.892 1.539 5.464 5.171 5.464 2.245 0 3.817-1.095 4.3-3.246h2.7zm-2.633-4.622c-.129-2.606-2.088-4.695-4.783-4.695-2.857 0-4.558 2.157-4.755 4.695h9.538zm5.682-6.717h2.571v3.505h.062c1.313-2.668 3.149-3.988 6.102-3.892v2.892c-4.402 0-6.007 2.505-6.007 6.717v7.391h-2.728v-16.613zm11.081 0h2.571v2.634h.062c1.162-2.055 3.02-3.021 5.4-3.021 4.367 0 5.715 2.505 5.715 6.071v10.923h-2.729v-11.243c0-2.022-1.285-3.342-3.373-3.342-3.307 0-4.918 2.218-4.918 5.206v9.379h-2.728v-16.607zm31.262 11.339c-.735 3.662-3.374 5.656-7.101 5.656-5.299 0-7.803-3.662-7.966-8.739 0-4.982 3.278-8.643 7.809-8.643 5.877 0 7.674 5.492 7.511 9.508H303.43c-.095 2.892 1.544 5.464 5.176 5.464 2.245 0 3.817-1.095 4.3-3.246h2.7zm-2.638-4.622c-.129-2.606-2.089-4.695-4.783-4.695-2.857 0-4.558 2.157-4.755 4.695h9.538zm9.352-6.717h3.307v2.41h-3.307v10.317c0 1.252.354 1.477 2.055 1.477h1.252v2.409h-2.088c-2.824 0-3.952-.579-3.952-3.634v-10.569h-2.818v-2.41h2.818v-4.981h2.733v4.981zm7.68 14.198h-2.408v2.409H330v-2.409zM89.668 102.362c-.163-1.539-1.19-2.202-2.667-2.202-1.201 0-2.408.438-2.408 1.837 0 1.325 1.718 1.522 3.447 1.909 1.717.393 3.435.994 3.435 3.1 0 2.292-2.24 3.213-4.199 3.213-2.414 0-4.446-1.174-4.446-3.797h1.359c0 1.803 1.504 2.589 3.132 2.589 1.291 0 2.728-.41 2.728-1.96s-1.718-1.73-3.43-2.106c-1.718-.376-3.447-.87-3.447-2.847 0-2.185 1.943-3.145 3.902-3.145 2.195 0 3.868 1.039 3.958 3.403h-1.353l-.011.006zm8.582-3.409c3.419 0 5.148 2.712 5.148 5.633 0 2.92-1.729 5.633-5.148 5.633-3.419 0-5.153-2.713-5.153-5.633 0-2.921 1.734-5.633 5.153-5.633zm0 10.064c2.622 0 3.716-2.258 3.716-4.426s-1.1-4.425-3.716-4.425-3.716 2.257-3.716 4.425c0 2.168 1.094 4.426 3.716 4.426zm7.377-9.807h7.062v1.208h-5.631v3.415h4.94v1.208h-4.94v4.925h-1.431V99.211zm11.76 1.208H113.8v-1.207h8.6v1.207h-3.582v9.548h-1.431v-9.548zm16.971 9.548h-1.494l-2.453-9.037h-.028l-2.487 9.037h-1.487l-2.757-10.755h1.46l2.111 8.947h.028l2.408-8.947h1.555l2.375 8.947h.033l2.184-8.947h1.426l-2.874 10.755zm6.809-10.756h1.583l4.199 10.756h-1.583l-1.173-3.235h-4.548l-1.206 3.235h-1.471l4.199-10.755zm-1.067 6.314h3.643l-1.796-5.016h-.028l-1.819 5.016zm8.443-6.314h5.064c2.02 0 3.267 1.096 3.267 2.82 0 1.298-.573 2.365-1.864 2.73v.028c1.252.241 1.504 1.162 1.611 2.218.09 1.05.028 2.23.629 2.971h-1.594c-.405-.438-.18-1.595-.393-2.651-.152-1.05-.41-1.943-1.797-1.943h-3.492v4.594h-1.431V99.211zm4.418 4.954c1.336 0 2.487-.348 2.487-1.915 0-1.05-.573-1.836-1.914-1.836h-3.554v3.751h2.981zm6.439-4.954h7.427v1.208h-5.99v3.415h5.58v1.208h-5.58v3.723h6.035v1.202H159.4V99.211zm16.909 1.208h-3.581v-1.207h8.594v1.207h-3.581v9.548h-1.432v-9.548zm6.748-1.208h7.427v1.208h-5.996v3.415h5.586v1.208h-5.586v3.723h6.035v1.202h-7.466V99.211zm17.301 3.242c-.297-1.522-1.516-2.286-3.009-2.286-2.565 0-3.643 2.106-3.643 4.352 0 2.455 1.078 4.504 3.66 4.504 1.881 0 2.97-1.325 3.099-3.1h1.431c-.269 2.679-1.942 4.308-4.648 4.308-3.346 0-4.974-2.477-4.974-5.605 0-3.128 1.78-5.661 5.092-5.661 2.245 0 4.098 1.207 4.424 3.493h-1.432v-.005zm3.856-3.242h1.426v4.623h5.664v-4.622h1.431v10.755h-1.431v-4.925h-5.664v4.925h-1.426V99.211zm11.396 0h1.522l5.664 8.723h.028v-8.722h1.358v10.755h-1.566l-5.619-8.632h-.028v8.632h-1.359V99.211zm15.976-.257c3.419 0 5.148 2.712 5.148 5.633 0 2.92-1.735 5.633-5.148 5.633-3.413 0-5.148-2.713-5.148-5.633 0-2.921 1.735-5.633 5.148-5.633zm0 10.064c2.616 0 3.716-2.258 3.716-4.426s-1.1-4.425-3.716-4.425-3.716 2.257-3.716 4.425c0 2.168 1.1 4.426 3.716 4.426zm7.304-9.807h1.431v9.554h5.698v1.202h-7.129V99.211zm13.221-.257c3.418 0 5.153 2.712 5.153 5.633 0 2.92-1.735 5.633-5.153 5.633-3.419 0-5.148-2.713-5.148-5.633 0-2.921 1.735-5.633 5.148-5.633zm0 10.064c2.621 0 3.716-2.258 3.716-4.426s-1.095-4.425-3.716-4.425c-2.622 0-3.717 2.257-3.717 4.425 0 2.168 1.101 4.426 3.717 4.426zm15.482-.388c-.831 1.129-2.178 1.595-3.447 1.595-3.211 0-5.12-2.622-5.12-5.425 0-3.134 1.713-5.84 5.12-5.84 2.347 0 4.216 1.055 4.62 3.571h-1.431c-.292-1.629-1.595-2.364-3.195-2.364-2.604 0-3.688 2.257-3.688 4.566 0 2.308 1.291 4.29 3.688 4.29 2.212 0 3.537-1.555 3.447-3.51h-3.435v-1.207h4.715v5.667h-.904l-.376-1.343h.006zm5.417-9.419h-1.432v10.756h1.432V99.211zm2.953 0h7.427v1.208h-5.996v3.415h5.586v1.208h-5.586v3.723h6.035v1.202h-7.466V99.211zm15.96 3.152c-.169-1.539-1.19-2.202-2.661-2.202-1.207 0-2.414.438-2.414 1.837 0 1.325 1.718 1.522 3.452 1.909 1.712.393 3.436.994 3.436 3.1 0 2.292-2.246 3.213-4.205 3.213-2.408 0-4.44-1.174-4.44-3.797h1.353c0 1.803 1.504 2.589 3.132 2.589 1.291 0 2.723-.41 2.723-1.96s-1.712-1.73-3.436-2.106c-1.712-.376-3.441-.87-3.441-2.847 0-2.185 1.937-3.145 3.896-3.145 2.2 0 3.873 1.039 3.963 3.403h-1.358v.006zm8.566-3.152h1.432v9.554h5.686v1.202h-7.118V99.211zm10.065 1.208h-3.587v-1.207h8.6v1.207h-3.587v9.548h-1.426v-9.548zm6.742-1.208h3.688c3.312 0 5.165 1.658 5.165 5.123 0 3.465-1.583 5.633-5.165 5.633h-3.688V99.211zm1.431 9.554h2.375c.982 0 3.621-.27 3.621-4.235 0-2.561-.955-4.111-3.587-4.111h-2.409v8.346zm10.257-.466h-1.672v1.673h1.672v-1.673z" fill="#1D1D1B"/><path d="M324.808 58.359c1.532 0 2.818 1.213 2.818 2.802 0 1.59-1.286 2.83-2.818 2.83a2.819 2.819 0 01-2.835-2.83c0-1.617 1.291-2.802 2.835-2.802zm0 5.217c1.296 0 2.312-1.039 2.312-2.415 0-1.376-1.01-2.386-2.312-2.386-1.303 0-2.325 1.038-2.325 2.386s1.005 2.415 2.325 2.415zm-1.101-4.049h1.275c.785 0 1.15.309 1.15.944 0 .595-.376.842-.87.893l.943 1.454h-.55l-.892-1.415h-.545v1.415h-.511v-3.29zm.511 1.46h.533c.45 0 .865-.022.865-.539 0-.438-.376-.505-.719-.505h-.679v1.044z" fill="#1D1D1B"/></g><defs><clipPath id="clip0_79_142"><path fill="#fff" transform="translate(7 56)" d="M0 0h323v88H0z"/></clipPath></defs></svg>