<svg width="340" height="200" fill="none" xmlns="http://www.w3.org/2000/svg"><g clip-path="url(#clip0_79_279)" fill="#1D1D1B"><path d="M72.046 120.552H46.15l14.504-20.043 15.641-21.615c1.834-2.532 1.297-6.1-1.199-7.967a5.565 5.565 0 00-3.082-1.09H35.332c-2.886 0-5.225 2.38-5.225 5.317 0 2.936 2.34 5.313 5.23 5.313h25.894l-14.504 20.042-15.64 21.615c-1.83 2.536-1.298 6.104 1.198 7.967a5.523 5.523 0 003.083 1.086H72.05c2.89 0 5.23-2.377 5.23-5.313 0-2.935-2.34-5.312-5.23-5.312m231.72 0h-22.987V74.731c0-3.15-2.505-5.7-5.61-5.7-3.105 0-5.611 2.55-5.611 5.7v50.752c0 .068.023.122.023.191 0 .068-.023.127-.023.19 0 2.936 2.345 5.313 5.235 5.313h28.973c2.885 0 5.23-2.377 5.23-5.313 0-2.935-2.345-5.312-5.23-5.312zm-52.733 0h-23.354v-15.439h15.534c2.881 0 5.229-2.377 5.229-5.313s-2.344-5.313-5.229-5.313h-15.534V80.462h23.354c2.89 0 5.234-2.377 5.234-5.313s-2.344-5.313-5.234-5.313h-29.335c-2.89 0-5.23 2.382-5.23 5.313v50.711c0 2.936 2.34 5.313 5.23 5.313h29.335c2.89 0 5.234-2.377 5.234-5.313s-2.344-5.313-5.234-5.313m-66.026-16.084l-7.328 8.853 13.77 16.634a5.568 5.568 0 004.295 2.032 5.55 5.55 0 003.611-1.332c2.371-2.027 2.675-5.622.684-8.03l-15.032-18.157zm15.033-26.101c1.995-2.404 1.686-5.999-.685-8.026A5.55 5.55 0 00195.753 69a5.58 5.58 0 00-4.304 2.031l-13.77 16.644 7.328 8.848 15.032-18.156.005-.005zm-38.646-2.417c-.023-.023-.032-.055-.054-.078l-4-4.836A5.573 5.573 0 00153.04 69c-1.27 0-2.55.44-3.606 1.336-2.371 2.027-2.675 5.622-.684 8.026l18.316 22.129-18.316 22.129c-1.995 2.408-1.687 5.999.684 8.026a5.52 5.52 0 003.606 1.336c1.602 0 3.19-.691 4.304-2.032l4-4.835c.022-.028.031-.055.054-.078l20.315-24.546-20.315-24.546zm-25.591-5.972c-2.572-1.755-6.057-1.06-7.784 1.55l-10.277 15.524-5.606 8.476-5.61-8.476-10.276-15.525c-1.732-2.613-5.212-3.304-7.785-1.55-2.568 1.755-3.252 5.295-1.525 7.909l19.586 29.595v18.829c0 3.15 2.51 5.7 5.61 5.7 3.101 0 5.606-2.55 5.606-5.7v-18.829l19.582-29.596c1.727-2.613 1.047-6.149-1.521-7.907z"/></g><defs><clipPath id="clip0_79_279"><path fill="#fff" transform="translate(30 69)" d="M0 0h279v63H0z"/></clipPath></defs></svg>