<svg width="340" height="200" fill="none" xmlns="http://www.w3.org/2000/svg"><g clip-path="url(#clip0_79_252)" fill-rule="evenodd" clip-rule="evenodd"><path d="M0 79.396c.283.011.566.034.855.034h41.24v8.546H9.384v6.472H37.53v8.257H9.373v15.024c-.206.028-.35.067-.494.067H.322c-.105 0-.217-.028-.322-.044V79.396z" fill="#000"/><path d="M81.085 79c.006 3.258.017 6.516.033 9.774 0 .335-.138.491-.472.475h-.26c-4.537 0-9.074-.012-13.61.01-.628 0-.816-.172-.81-.814.021-3.146 0-6.298-.012-9.445h15.137-.006zm13.821 0c.944.653 2.01 1.183 2.804 1.986 2.043 2.059 2.965 4.664 3.187 7.537.039.53-.128.748-.689.748a2377.21 2377.21 0 00-14.131 0c-.555 0-.755-.179-.744-.77.028-2.907.01-5.813.01-8.714 0-.263-.027-.525-.05-.787h9.613zm-33.171 0c-.011 3.13-.039 6.26-.011 9.384 0 .658-.161.876-.833.876-4.67-.023-9.345-.011-14.015-.011-.3 0-.605.055-.65-.43-.294-3.22 2.382-8.006 5.275-9.4.295-.146.589-.28.889-.419h9.345z" fill="#EE3026"/><path d="M334.863 120c-1.138-.273-2.198-.675-3.004-1.607-1.249-1.445-1.515-3.637-.61-5.3.966-1.768 2.882-2.689 4.936-2.354 1.799.296 3.321 1.807 3.687 3.671.028.145.083.29.122.435v.926c-.044.167-.094.335-.133.502-.361 1.551-1.261 2.673-2.715 3.303-.472.206-1 .29-1.5.43h-.788l.005-.006zm.511-8.753c-2.226-.028-4.053 1.735-4.098 3.944-.038 2.326 1.777 4.229 4.048 4.223 2.21 0 4.065-1.852 4.087-4.078.022-2.221-1.793-4.062-4.042-4.089h.005zm-188.023-10.349c1.743.864 2.515 2.382 2.56 4.184.094 4.117.055 8.24.066 12.363 0 .083-.022.167-.044.301h-9.001v-12.62c0-1.562-.611-2.22-2.143-2.326a34.53 34.53 0 00-2.038-.078h-19.668v15.024h-9.312V79.43h.778c9.628 0 19.256-.012 28.885.01 2.038 0 4.07.168 6.052.732 3.709 1.054 6.108 3.408 6.586 7.291.311 2.589.322 5.233.211 7.839-.089 1.958-1.111 3.637-2.477 5.054-.139.145-.278.285-.411.424-.011.017-.011.039-.033.118h-.011zm-30.24-6.455c.233.01.428.028.622.028h19.151c.833 0 1.666-.04 2.493-.134.961-.106 1.633-.848 1.672-1.82a36.92 36.92 0 000-2.577c-.034-.931-.628-1.64-1.533-1.813a7.948 7.948 0 00-1.505-.128c-6.735-.006-13.471 0-20.206 0-.233 0-.461.022-.7.033v6.422l.006-.011zm143.242 23.314V79.48h37.491v8.485h-28.163v6.505h19.568v8.246h-19.574v6.528h28.33v8.513h-37.652zm-39.874-29.769v29.769h-9.323V79.429h.717c9.806 0 19.612-.01 29.417 0 2.26.006 4.448.464 6.48 1.501 3.232 1.652 4.887 4.469 5.586 7.894a23.79 23.79 0 01.461 4.653c.045 7.867.017 15.739.017 23.611 0 .212-.022.424-.033.675h-9.329v-1.004c0-8.157.006-16.313-.011-24.464 0-.804-.105-1.63-.283-2.416-.261-1.15-1.144-1.657-2.221-1.875-.233-.044-.483-.044-.722-.044h-20.073c-.194 0-.389.017-.677.028h-.006zm-56.459.011h-8.773v-8.536h34.91v8.514h-16.792v29.775h-9.345V87.999zm138.472.011v-8.53h34.965v8.502h-16.819v29.764h-9.328V88.01h-8.818zm-98.377 29.753h-9.267V79.48h9.267v38.283z" fill="#000"/><path d="M93.085 103.698c-2.343 0-4.686-.011-7.03.011-.527 0-.722-.139-.716-.703.022-2.973.022-5.941 0-8.915 0-.49.144-.647.639-.647 4.775.017 9.55.017 14.325 0 .428 0 .595.15.595.57-.006 3.04-.006 6.075 0 9.11 0 .474-.206.585-.65.58-2.388-.017-4.775-.006-7.163-.006zM61.673 93.5v10.153c-.244.017-.455.034-.666.034-4.67 0-9.34-.011-14.01.011-.621 0-.771-.195-.765-.787.027-2.928.022-5.858.005-8.792 0-.513.139-.686.672-.68 4.736.016 9.473.01 14.21.01.171 0 .343.028.56.045l-.006.006zm4.331 24.592v-10.076c.244-.016.477-.044.71-.044 4.565 0 9.124.011 13.688-.017.6 0 .733.201.733.753a914.038 914.038 0 000 8.731c0 .408 0 .703-.572.698-4.737-.023-9.478-.011-14.215-.011-.083 0-.172-.023-.338-.039l-.006.005zm19.379.05v-10.115c.222-.022.433-.05.644-.05 4.714 0 9.428.011 14.143-.011.588 0 .788.184.732.753-.355 3.66-1.61 6.829-4.836 8.921-.566.368-1.172.519-1.86.513-2.699-.028-5.397-.011-8.09-.011h-.733zm-23.71-10.114v10.07c-.233.011-.467.033-.7.033-2.476 0-4.958-.095-7.435.034-1.715.089-2.965-.653-4.064-1.769-1.783-1.813-2.71-4.073-3.115-6.561-.095-.574-.117-1.166-.172-1.807h15.486z" fill="#EE3026"/><path d="M334.258 115.593v2.109c-.222.017-.405.028-.627.044v-5.132c.894 0 1.749-.023 2.599.011.521.022 1.005.19 1.182.77.178.574.183 1.127-.283 1.595-.061.056-.111.129.028.173.166.837.327 1.674.488 2.516-.549.185-.788.056-.838-.535-.122-1.423.167-1.635-1.755-1.59-.255.005-.505.022-.794.039zm.039-.653c.644 0 1.216.022 1.777-.011.494-.028.716-.368.744-.842.022-.424-.133-.781-.572-.821-.638-.055-1.283-.011-1.954-.011v1.685h.005z" fill="#000"/></g><defs><clipPath id="clip0_79_252"><path fill="#fff" transform="translate(0 79)" d="M0 0h340v41H0z"/></clipPath></defs></svg>