<svg width="340" height="200" fill="none" xmlns="http://www.w3.org/2000/svg"><g clip-path="url(#clip0_79_273)"><path d="M127.455 88.835h-7.287v34.487h7.287v-13.983h15.986v13.983h7.054V88.835h-7.054v13.983h-15.986V88.835zm55.953 19.807c0 5.592-2.823 8.621-7.995 8.621-5.172 0-7.994-3.029-7.994-8.853V88.835h-7.054v19.807c0 9.785 5.409 15.378 15.045 15.378s15.045-5.593 15.045-15.613V88.832h-7.054v19.806l.007.004zm68.178-19.806l-7.995 23.768-7.757-23.769h-7.524l12.225 34.487h5.876l7.995-22.604 7.757 22.604h6.113l11.989-34.487h-7.287l-7.758 23.769-7.995-23.769h-5.642.003zm54.308 13.281h-12.93v-6.992h18.809v-6.29h-25.862v34.487h26.566v-6.29h-19.513v-8.622h12.93v-6.293zm15.045-13.282h7.054v34.487h-7.054V88.835zM220.315 116.1l3.056 7.223h7.524l-15.282-34.487-.233-.231h-6.113l-15.282 34.721h7.287l3.057-6.756.233-.466h15.753v-.004zm-7.995-18.642l4.938 11.651.234.698h-10.814l.233-.698 5.409-11.65z" fill="#262729"/><path d="M50.578 119.826s.234-.231 0-.231C39.764 96.293 24.952 78.349 24.952 78.349s-7.994 7.457-7.524 15.146c.234 5.824 4.702 9.088 4.702 9.088 7.053 6.756 23.98 15.378 27.978 17.243h.47zm-2.823 5.824c0-.231-.47-.231-.47-.231l-28.212.932c3.057 5.361 8.229 9.554 13.637 8.39 3.76-.932 12.226-6.756 14.812-8.621.47-.467.233-.467.233-.467m.47-2.563c.234-.231 0-.466 0-.466-12.458-8.39-36.439-20.974-36.439-20.974-2.115 6.757.704 12.118.704 12.118 3.056 6.525 8.932 8.39 8.932 8.39 2.586 1.164 5.409 1.164 5.409 1.164h21.158c.233 0 .233-.232.233-.232m1.886-56.859c-1.175 0-4.468.933-4.468.933-7.524 1.865-9.17 8.622-9.17 8.622-1.41 4.193 0 8.853 0 8.853 2.587 10.953 14.812 29.125 17.398 32.856l.234.231c.233 0 .233-.231.233-.231 4.238-40.777-4.227-51.264-4.227-51.264zm9.402 51.264c.234 0 .47-.232.47-.232 2.824-3.962 14.812-21.903 17.398-32.856 0 0 1.412-5.36 0-8.853 0 0-1.882-6.756-9.402-8.621 0 0-2.116-.467-4.468-.933 0 0-8.465 10.718-4.231 51.032 0 .466.233.466.233.466m6.584 7.924s-.234 0-.234.231v.467c2.823 1.865 10.814 7.689 14.812 8.621 0 0 7.287 2.563 13.637-8.39l-28.212-.932-.003.003zm35.969-24s-23.98 12.815-36.44 21.206c0 0-.233.231-.233.466 0 0 0 .231.233.231h21.628s2.116 0 4.939-1.164c0 0 5.876-1.865 9.169-8.621 0-.232 2.823-5.593.704-12.118zM63.271 119.83s.233.231.47 0c3.998-2.097 20.925-10.487 27.978-17.244 0 0 4.468-3.495 4.702-9.087.47-7.924-7.525-15.147-7.525-15.147s-14.811 17.475-25.625 41.011c0 0-.234.232 0 .467z" fill="#CF0A2C"/></g><defs><clipPath id="clip0_79_273"><path fill="#fff" transform="translate(11 66)" d="M0 0h317v69H0z"/></clipPath></defs></svg>