<svg width="340" height="200" fill="none" xmlns="http://www.w3.org/2000/svg"><g clip-path="url(#clip0_79_231)"><path d="M167.414 123.231h1.667l8.609 11.983v-11.983h1.48v14.527h-1.403l-8.882-12.327v12.327h-1.471v-14.527zm15.423 0h9.524v1.475h-7.985v4.797h7.788v1.458h-7.788v5.391h8.062v1.406h-9.601v-14.527zm17.235 1.475h-5.403v-1.475h12.337v1.475h-5.403v13.061h-1.531v-13.061zm8.798-1.475h1.573l3.788 12.017 3.873-12.017h1.316l3.847 12.017 3.813-12.017h1.471l-4.625 14.631h-1.317l-3.881-12.095-3.873 12.095h-1.343l-4.642-14.631zm21.066 7.255c0-5.176 2.624-7.488 7.224-7.488 4.599 0 7.267 2.312 7.267 7.488s-2.642 7.505-7.267 7.505-7.224-2.312-7.224-7.505zm12.96.017c0-3.916-1.803-6.038-5.736-6.038s-5.694 2.122-5.694 6.038c0 3.917 1.787 6.056 5.694 6.056s5.736-2.122 5.736-6.056zm10.473 1.338h-4.317v5.926h-1.496V123.24h6.215c3.343 0 4.856 1.354 4.856 4.235 0 2.511-1.188 3.977-3.693 4.314l3.479 5.978h-1.633l-3.419-5.926h.008zm.428-1.415c2.043 0 3.3-.63 3.3-2.916s-1.223-2.847-3.36-2.847h-4.685v5.763h4.745zm12.465-.371l-2.872 3.174v4.538h-1.496V123.24h1.496v8.014l7.284-8.014h1.77l-5.164 5.702 5.865 8.825h-1.727l-5.156-7.712zm8.165 6.237l.778-1.173c1.727 1.095 3.42 1.466 5.147 1.466 2.975 0 4.291-.845 4.291-2.846 0-2.002-1.71-2.356-4.291-2.821-3.104-.552-5.207-1.079-5.207-4.02 0-2.942 1.787-3.908 5.207-3.908 2.257 0 3.864.509 5.009 1.294l-.812 1.251c-1.034-.682-2.565-1.139-4.197-1.139-2.582 0-3.685.725-3.685 2.45 0 1.846 1.496 2.191 4.061 2.665 3.146.57 5.42 1.036 5.42 4.159 0 2.881-1.821 4.27-5.745 4.27-2.172 0-4.138-.449-5.968-1.665" fill="#6F8FA6"/><path d="M301.196 63.19c-20.237 0-21.1 9.153-21.1 22.058v31.694h4.77V85.257c0-9.731-.384-17.53 16.33-17.53 1.787 0 3.377.095 4.804.268v-4.598c-1.47-.13-3.06-.207-4.804-.207zM65.129 96.333V64.251h4.873v32.177c0 9.248-.094 17.055 16.706 17.055 16.799 0 16.329-7.807 16.329-17.538V64.251h4.771v31.694c0 12.914-.864 22.059-21.1 22.059-20.237 0-21.58-9.153-21.58-21.68m93.42-11.455v32.073h-4.865V84.774c0-9.248.095-17.046-16.705-17.046-16.8 0-16.329 7.798-16.329 17.529v31.694h-4.771V85.257c0-12.914.855-22.059 21.1-22.059s21.579 9.153 21.579 21.67m13.534-20.513h-4.677v52.596h4.677V64.355zm8.746 0h24.4c12.097 0 17.586 6.073 17.586 16.856 0 10.783-5.412 17.46-17.655 17.46h-19.663v18.271h-4.677V64.355h.009zm24.468 29.589c8.43 0 12.619-4.15 12.619-12.526 0-8.377-4.523-12.345-12.833-12.345h-19.586v24.87h19.8zm22.955-3.485c0-15.511 4.394-27.459 24.066-27.459 19.673 0 20.998 13.777 20.904 28.321h-40.285c.094 12.811 3.24 22.352 19.758 22.352 8.788 0 12.79-2.407 17.09-5.59l2.667 3.563c-4.77 3.562-10.404 6.357-19.757 6.357-20.622 0-24.443-12.042-24.443-27.553m4.779-3.563h35.514c-.479-10.499-1.145-19.453-16.329-19.453-15.184 0-18.612 7.997-19.185 19.453zM35.813 128.356c20.236 0 21.1-9.153 21.1-22.059V64.251h-4.77v42.046c0 9.722.375 17.53-16.322 17.53-.632 0-1.23-.018-1.812-.044v4.538c.59.017 1.188.026 1.812.026m259.492-11.172c-1.821 0-3.3-1.492-3.3-3.33a3.31 3.31 0 013.3-3.321c1.821 0 3.291 1.493 3.291 3.321 0 1.829-1.47 3.33-3.291 3.33zm0-6.219a2.884 2.884 0 00-2.873 2.889c0 1.596 1.291 2.899 2.873 2.899 1.581 0 2.864-1.303 2.864-2.899s-1.291-2.889-2.864-2.889z" fill="#1D1D1B"/><path d="M295.527 114.285h-1.06v1.467h-.504v-3.822h1.684c.958 0 1.325.397 1.325 1.148 0 .612-.256 1.043-.915 1.164l.855 1.501h-.547l-.846-1.466.008.008zm.12-.474c.513 0 .812-.155.812-.708 0-.552-.29-.681-.829-.681h-1.154v1.389h1.171z" fill="#1D1D1B"/></g><defs><clipPath id="clip0_79_231"><path fill="#fff" transform="translate(34 63)" d="M0 0h272v75H0z"/></clipPath></defs></svg>