<svg width="26" height="23" fill="none" xmlns="http://www.w3.org/2000/svg"><path d="M.456 10.886l5.977 2.23 2.33 7.496c.102.507.71.608 1.115.304l3.343-2.735c.304-.304.811-.304 1.216 0l5.978 4.356c.405.304 1.013.102 1.114-.405L25.987.856c.101-.506-.405-1.013-.912-.81L.455 9.569c-.607.203-.607 1.115 0 1.317zm8.004 1.115l11.752-7.194c.203-.1.405.203.203.304l-9.625 9.017c-.304.304-.608.71-.608 1.216l-.304 2.432c0 .304-.506.405-.608 0l-1.216-4.458c-.304-.507-.1-1.115.406-1.317z" fill="#181818"/></svg>