<svg width="24" height="26" fill="none" xmlns="http://www.w3.org/2000/svg"><path d="M18.374.617a35.025 35.025 0 00-13.092 0C3.377 1.03.974 3.332.56 5.143a25.852 25.852 0 000 10.696c.497 1.81 2.9 4.114 4.723 4.526.083 0 .166.082.166.165v5.183c0 .247.331.412.497.165l2.486-2.55s1.989-2.058 2.32-2.387c0 0 .083-.082.166-.082 2.486.082 5.054-.165 7.54-.576 1.906-.412 4.308-2.716 4.723-4.526a25.85 25.85 0 000-10.697c-.497-1.728-2.9-4.031-4.806-4.443zm.083 15.47c-.414.822-.912 1.48-1.74 1.892l-.746.247c-.331-.083-.58-.165-.829-.247-2.651-1.07-5.137-2.551-7.125-4.69-1.078-1.235-1.989-2.633-2.735-4.114-.331-.741-.663-1.4-.911-2.14-.249-.658.166-1.316.58-1.81.414-.494.911-.823 1.491-1.07.415-.247.829-.082 1.16.247.663.823 1.326 1.646 1.823 2.55.332.577.249 1.235-.331 1.647-.166.082-.249.164-.415.329-.082.082-.248.164-.33.329-.167.247-.167.493-.084.74.663 1.893 1.906 3.374 3.812 4.197.331.164.58.247.994.247.58-.083.829-.74 1.243-1.07.414-.33.911-.33 1.409-.082.414.247.828.576 1.325.905.415.329.829.576 1.243.905.249.164.332.576.166.987zm-3.48-6.172c-.166 0-.083 0 0 0-.332 0-.415-.165-.497-.411 0-.165 0-.412-.083-.576a1.563 1.563 0 00-.58-.905l-.497-.247c-.249-.083-.415-.083-.663-.083-.249-.082-.332-.246-.332-.493 0-.165.249-.33.415-.33 1.325.083 2.32.823 2.485 2.387v.329c0 .164-.082.33-.248.33zm-.829-3.62c-.414-.165-.828-.33-1.326-.412-.165 0-.414-.082-.58-.082-.248 0-.414-.165-.331-.411 0-.247.166-.412.414-.33.829.083 1.575.247 2.32.576 1.492.74 2.32 1.975 2.569 3.62v1.071c-.083.33-.663.412-.746 0 0-.082-.083-.246-.083-.329 0-.74-.165-1.48-.497-2.139-.497-.74-1.077-1.234-1.74-1.563zm4.475 4.937c-.249 0-.415-.247-.415-.494 0-.494-.083-.988-.165-1.481-.332-2.633-2.486-4.773-5.055-5.184-.414-.082-.828-.082-1.16-.165-.248 0-.58 0-.663-.329-.083-.247.166-.493.415-.493h.165c.166 0 3.398.082 0 0 3.48.082 6.38 2.386 6.96 5.842.083.576.166 1.152.166 1.81.166.247 0 .494-.248.494z" fill="#181818"/></svg>